<?xml version="1.0" encoding="iso-8859-1"?>
<!-- Generator: Adobe Illustrator 19.0.0, SVG Export Plug-In . SVG Version: 6.00 Build 0)  -->
<svg version="1.1" id="Layer_1" xmlns="http://www.w3.org/2000/svg" xmlns:xlink="http://www.w3.org/1999/xlink" x="0px" y="0px"
	 viewBox="0 0 512 512" style="enable-background:new 0 0 512 512;" xml:space="preserve">
<g>
	<g>
		<g>
			<path d="M503.916,495.832h-13.474V299.116c0-4.465-3.62-8.084-8.084-8.084H331.453c-4.465,0-8.084,3.62-8.084,8.084
				s3.62,8.084,8.084,8.084h142.821v37.726H256c-4.465,0-8.084,3.62-8.084,8.084v75.453c0,4.465,3.62,8.084,8.084,8.084h218.274
				v59.284h-67.368c-4.465,0-8.084,3.62-8.084,8.084c0,4.465,3.62,8.084,8.084,8.084h97.01c4.465,0,8.084-3.62,8.084-8.084
				C512,499.451,508.38,495.832,503.916,495.832z M474.274,420.379h-59.284v-35.032c0-4.465-3.62-8.084-8.084-8.084
				c-4.465,0-8.084,3.62-8.084,8.084v35.032h-59.284v-35.032c0-4.465-3.62-8.084-8.084-8.084s-8.084,3.62-8.084,8.084v35.032
				h-59.284v-59.284h210.189V420.379z"/>
			<path d="M212.884,156.295c22.289,0,40.421-18.132,40.421-40.421s-18.132-40.421-40.421-40.421s-40.421,18.132-40.421,40.421
				C172.463,138.162,190.596,156.295,212.884,156.295z M212.884,91.621c13.373,0,24.253,10.879,24.253,24.253
				c0,13.373-10.879,24.253-24.253,24.253s-24.253-10.879-24.253-24.253C188.632,102.5,199.511,91.621,212.884,91.621z"/>
			<path d="M374.568,495.832H206.949c2.931-5.731,3.932-12.305,2.756-18.776l-13.719-75.453
				c-2.564-14.103-14.829-24.34-29.164-24.34h-7.132c-14.335,0-26.599,10.237-29.164,24.34l-13.719,75.453
				c-1.177,6.471-0.175,13.045,2.756,18.776H37.726V93.456l38.714,7.97c4.372,0.902,8.648-1.914,9.548-6.287
				c0.9-4.373-1.914-8.648-6.287-9.548L31.273,75.62c-2.379-0.492-4.854,0.115-6.738,1.651c-1.884,1.535-2.977,3.836-2.977,6.266
				v412.295H8.084c-4.465,0-8.084,3.62-8.084,8.084C0,508.38,3.62,512,8.084,512h366.484c4.465,0,8.084-3.62,8.084-8.084
				C382.653,499.451,379.033,495.832,374.568,495.832z M190.885,490.991c-2.568,3.076-6.338,4.841-10.345,4.841h-9.201v-45.81
				c0-4.465-3.62-8.084-8.084-8.084s-8.084,3.62-8.084,8.084v45.81h-9.201c-4.007,0-7.777-1.764-10.345-4.841
				c-2.568-3.076-3.628-7.101-2.912-11.043l13.719-75.453c1.166-6.411,6.74-11.064,13.256-11.064h7.132
				c6.516,0,12.091,4.652,13.256,11.064l13.719,75.453C194.515,483.89,193.453,487.914,190.885,490.991z"/>
			<path d="M338.942,155.469l49.1,10.11v101.2c0,4.465,3.62,8.084,8.084,8.084s8.084-3.62,8.084-8.084v-107.79
				c0-3.836-2.697-7.145-6.454-7.918l-55.555-11.438c-4.372-0.903-8.648,1.913-9.548,6.287
				C331.753,150.294,334.569,154.569,338.942,155.469z"/>
			<path d="M111.386,140.076l19.732,3.946c1.148,3.335,2.5,6.598,4.045,9.765l-11.163,16.744
				c-4.713,7.069-3.773,16.559,2.234,22.566l9.426,9.426c6.007,6.007,15.498,6.947,22.566,2.234l16.745-11.163
				c3.167,1.547,6.429,2.897,9.765,4.045l3.946,19.733c1.666,8.33,9.041,14.376,17.536,14.376h13.33
				c8.495,0,15.87-6.046,17.536-14.376l3.946-19.732c3.335-1.148,6.598-2.5,9.765-4.045l16.745,11.163
				c7.069,4.711,16.559,3.773,22.566-2.234l9.426-9.426c6.007-6.007,6.947-15.497,2.234-22.566l-11.163-16.745
				c1.547-3.167,2.898-6.43,4.045-9.765l19.733-3.946c8.33-1.666,14.376-9.041,14.376-17.536v-13.33
				c0-8.495-6.046-15.87-14.376-17.536l-19.732-3.946c-1.148-3.335-2.5-6.598-4.045-9.765l11.163-16.744
				c4.713-7.069,3.773-16.559-2.234-22.566l-9.426-9.426c-6.006-6.007-15.497-6.946-22.566-2.234l-16.745,11.163
				c-3.167-1.547-6.429-2.897-9.765-4.045l-3.946-19.733C235.419,6.046,228.044,0,219.55,0h-13.33
				c-8.495,0-15.87,6.046-17.536,14.376l-3.946,19.732c-3.335,1.148-6.598,2.5-9.765,4.045L158.229,26.99
				c-7.07-4.713-16.56-3.773-22.566,2.234l-9.426,9.426c-6.007,6.007-6.947,15.497-2.234,22.566l11.163,16.745
				c-1.547,3.167-2.897,6.429-4.045,9.765l-19.733,3.946c-8.33,1.666-14.376,9.041-14.376,17.535v13.33
				C97.011,131.033,103.056,138.408,111.386,140.076z M113.179,109.208c0-0.815,0.58-1.522,1.379-1.682l24.433-4.886
				c2.984-0.597,5.38-2.819,6.2-5.748c1.508-5.389,3.663-10.59,6.405-15.457c1.494-2.653,1.371-5.92-0.317-8.452l-13.823-20.735
				c-0.452-0.677-0.361-1.588,0.214-2.163l9.426-9.426c0.577-0.577,1.486-0.666,2.164-0.214l20.734,13.823
				c2.532,1.688,5.799,1.811,8.452,0.317c4.867-2.741,10.066-4.896,15.457-6.405c2.93-0.82,5.151-3.216,5.748-6.2l4.886-24.433
				c0.16-0.799,0.867-1.379,1.682-1.379h13.33c0.815,0,1.522,0.58,1.682,1.379l4.886,24.433c0.597,2.984,2.819,5.38,5.748,6.2
				c5.389,1.508,10.59,3.663,15.457,6.405c2.653,1.494,5.92,1.371,8.452-0.317l20.734-13.823c0.677-0.453,1.587-0.363,2.164,0.213
				l9.426,9.426c0.576,0.577,0.666,1.486,0.214,2.164l-13.823,20.734c-1.689,2.533-1.812,5.799-0.317,8.452
				c2.741,4.867,4.896,10.066,6.405,15.457c0.82,2.93,3.216,5.151,6.2,5.748l24.433,4.886c0.799,0.16,1.379,0.867,1.379,1.682v13.33
				c0,0.815-0.58,1.522-1.379,1.682l-24.433,4.886c-2.985,0.597-5.38,2.819-6.2,5.749c-1.507,5.387-3.662,10.587-6.404,15.456
				c-1.494,2.652-1.371,5.919,0.317,8.452l13.823,20.735c0.452,0.677,0.361,1.588-0.214,2.163l-9.426,9.426
				c-0.577,0.577-1.486,0.666-2.164,0.214l-20.734-13.823c-2.532-1.689-5.799-1.811-8.452-0.317
				c-4.867,2.741-10.066,4.896-15.457,6.405c-2.93,0.82-5.151,3.216-5.748,6.2l-4.886,24.433c-0.16,0.799-0.867,1.379-1.682,1.379
				h-13.33c-0.815,0-1.522-0.58-1.682-1.379l-4.886-24.433c-0.597-2.984-2.819-5.38-5.748-6.2
				c-5.389-1.508-10.59-3.663-15.457-6.405c-1.235-0.695-2.603-1.04-3.968-1.04c-1.567,0-3.131,0.455-4.485,1.358l-20.735,13.823
				c-0.676,0.453-1.588,0.362-2.163-0.214l-9.426-9.426c-0.576-0.577-0.666-1.486-0.215-2.164l13.823-20.734
				c1.689-2.533,1.812-5.799,0.317-8.452c-2.741-4.867-4.896-10.066-6.405-15.457c-0.82-2.93-3.216-5.151-6.2-5.748l-24.433-4.886
				c-0.799-0.16-1.379-0.867-1.379-1.682V109.208z"/>
			<path d="M158.989,291.032c-4.465,0-8.084,3.62-8.084,8.084v53.895c0,4.465,3.62,8.084,8.084,8.084
				c4.465,0,8.084-3.62,8.084-8.084V307.2h132.042c4.465,0,8.084-3.62,8.084-8.084s-3.62-8.084-8.084-8.084H158.989z"/>
		</g>
	</g>
</g>
<g>
</g>
<g>
</g>
<g>
</g>
<g>
</g>
<g>
</g>
<g>
</g>
<g>
</g>
<g>
</g>
<g>
</g>
<g>
</g>
<g>
</g>
<g>
</g>
<g>
</g>
<g>
</g>
<g>
</g>
</svg>
